<?xml version="1.0" encoding="UTF-8"?>
<svg width="48px" height="49px" viewBox="0 0 48 49" version="1.1" xmlns="http://www.w3.org/2000/svg" xmlns:xlink="http://www.w3.org/1999/xlink">
    <!-- Generator: Sketch 52.2 (67145) - http://www.bohemiancoding.com/sketch -->
    <title>Claro-2</title>
    <desc>Created with Sketch.</desc>
    <g id="Designs" stroke="none" stroke-width="1" fill="none" fill-rule="evenodd">
        <g id="iPhone-8-Plus" transform="translate(-25.000000, -142.000000)">
            <g id="Claro-2" transform="translate(25.000000, 142.316406)">
                <path d="M45.3251638,14.6063418 C44.1335418,11.7462308 42.4467444,9.19784745 40.2648927,6.99768742 C38.1014707,4.79764864 35.5898255,3.0925428 32.7848821,1.88249116 C29.8694822,0.635701479 26.7894279,0.0124885089 23.5994019,0.0124885089 C20.3909464,0.0124885089 17.3475089,0.635701479 14.4323514,1.88249116 C11.6089784,3.0925428 9.09709064,4.79764864 6.93366865,6.99768742 C4.75193827,9.19784745 3.06526208,11.7462308 1.87339759,14.6063418 C0.645158796,17.5581161 0.0218245787,20.6564788 0.0218245787,23.9016724 C0.0218245787,27.1281938 0.645158796,30.2270415 1.87339759,33.1786945 C3.06526208,36.0386843 4.75193827,38.5873101 6.93366865,40.7874701 C9.09709064,42.9873877 11.6089784,44.6923723 14.4323514,45.9023027 C17.3475089,47.1492136 20.3909464,47.7724266 23.5994019,47.7724266 C26.7894279,47.7724266 29.8694822,47.1492136 32.7848821,45.9023027 C35.5898255,44.6923723 38.1014707,42.9873877 40.2648927,40.7874701 C42.4467444,38.5873101 44.1335418,36.0386843 45.3251638,33.1786945 C46.5537663,30.2270415 47.1768581,27.1281938 47.1768581,23.9016724 C47.1768581,20.6564788 46.5537663,17.5581161 45.3251638,14.6063418 Z M33.7013932,20.8947304 C34.7829223,20.8947304 35.7365352,21.2799342 36.5247662,22.0681653 C37.2949313,22.8566388 37.6800139,23.8100091 37.6800139,24.9100891 C37.6800139,26.0099267 37.2949313,26.9635395 36.5247662,27.7334621 C35.7365352,28.5219357 34.7829223,28.9250841 33.7013932,28.9250841 C32.6197428,28.9250841 31.6845596,28.5219357 30.9147582,27.7334621 C30.1262847,26.9635395 29.7410809,26.0099267 29.7410809,24.9100891 C29.7410809,23.8100091 30.1262847,22.8566388 30.9147582,22.0681653 C31.6845596,21.2799342 32.6197428,20.8947304 33.7013932,20.8947304 Z M5.13702084,20.3814891 C6.09026994,19.3913807 7.22708799,18.9147561 8.6021577,18.9331858 C9.70211646,18.9147561 10.710412,19.2632219 11.5905488,19.9599109 C12.4522559,20.6381704 13.0206649,21.5183071 13.313963,22.5815278 L11.3154378,22.5815278 C11.0588778,22.0681653 10.6921036,21.6282787 10.2339087,21.316551 C9.72042486,20.9863936 9.18887512,20.8216181 8.6021577,20.8216181 C7.75888022,20.8216181 7.04364028,21.1332245 6.4570441,21.719942 C5.85201828,22.3249678 5.55859895,23.0399652 5.57690734,23.883364 C5.55859895,24.7266414 5.85201828,25.4415176 6.4570441,26.0466647 C7.04364028,26.6335034 7.75888022,26.9451099 8.6021577,26.9451099 C9.18887512,26.9451099 9.72042486,26.780213 10.2339087,26.4683641 C10.6921036,26.1384492 11.0588778,25.7166286 11.3154378,25.203266 L13.313963,25.203266 C13.0206649,26.2667292 12.4522559,27.1281938 11.5905488,27.8251254 C10.710412,28.503506 9.70211646,28.8334209 8.6021577,28.8334209 C7.22708799,28.8334209 6.09026994,28.3567964 5.13702084,27.4033048 C4.16534209,26.4317473 3.68871754,25.2398828 3.68871754,23.883364 C3.68871754,22.508173 4.16534209,21.3531678 5.13702084,20.3814891 Z M18.0075811,21.8848388 C18.5208225,21.2065794 19.4192676,20.8582349 20.7025529,20.8766645 C21.5276432,20.8582349 22.2610703,21.0232529 22.9210213,21.3715974 C23.5443555,21.7016336 23.8743916,22.3432762 23.8743916,23.2597872 L23.8743916,28.8700377 L21.9676509,28.8700377 L21.9676509,28.0818067 C21.3810548,28.5952905 20.5558432,28.8517293 19.5109309,28.8700377 C18.869167,28.8517293 18.337496,28.6686453 17.9525347,28.338488 C17.5124057,27.935097 17.2924624,27.3849964 17.3108921,26.7068582 C17.2924624,25.734937 17.640807,25.0567988 18.3558044,24.6349782 C18.7775038,24.3966053 19.3276044,24.2315872 20.0058638,24.139924 L21.472718,23.9016724 C21.7658948,23.7732711 21.9126045,23.5716362 21.9126045,23.3148337 C21.8942961,23.0032272 21.8026329,22.7832839 21.5826896,22.6731911 C21.3626251,22.5447898 21.0508974,22.471435 20.6475064,22.4898646 C20.1708819,22.471435 19.8408457,22.5999575 19.6392109,22.8566388 C19.5109309,23.0032272 19.4009592,23.2232917 19.3642212,23.5532066 L17.4574805,23.5532066 C17.5124057,22.8566388 17.6774238,22.3066594 18.0075811,21.8848388 Z M14.285763,28.8700377 L16.1923824,28.8700377 L16.1923824,18.9331858 L14.285763,18.9331858 L14.285763,28.8700377 Z M26.9727543,22.2333046 C27.3579581,21.7016336 27.8162743,21.3531678 28.3295156,21.1515329 L29.0629427,20.9497768 L29.5577544,20.91316 L29.5760628,22.8566388 L28.9895879,22.8199007 C28.6228137,22.8199007 28.2744692,22.9298724 27.9446756,23.1499369 C27.6513775,23.3515717 27.4128833,23.5899446 27.2846033,23.883364 C27.119464,24.1582324 27.0461092,24.5983614 27.0461092,25.2215744 L27.0461092,28.8700377 L25.1577981,28.8700377 L25.1577981,21.2431962 L26.9727543,21.2615046 L26.9727543,22.2333046 Z M42.6117624,16.5864373 L38.01005,21.188271 L36.7997559,19.9782193 L41.401832,15.3762644 L42.6117624,16.5864373 Z M33.0779377,19.3547639 L34.7829223,19.3547639 L34.7829223,14.4230153 L33.0779377,14.4230153 L33.0779377,19.3547639 Z M38.8533275,24.7999963 L43.8951689,24.7999963 L43.8951689,23.0950117 L38.8533275,23.0950117 L38.8533275,24.7999963 Z" id="Fill-2" fill="#FF0000"></path>
                <path d="M36.5247662,22.0681653 C35.7365352,21.2799342 34.7829223,20.8947304 33.7013932,20.8947304 C32.6197428,20.8947304 31.6845596,21.2799342 30.9147582,22.0681653 C30.1262847,22.8566388 29.7410809,23.8100091 29.7410809,24.9100891 C29.7410809,26.0099267 30.1262847,26.9635395 30.9147582,27.7334621 C31.6845596,28.5219357 32.6197428,28.9250841 33.7013932,28.9250841 C34.7829223,28.9250841 35.7365352,28.5219357 36.5247662,27.7334621 C37.2949313,26.9635395 37.6800139,26.0099267 37.6800139,24.9100891 C37.6800139,23.8100091 37.2949313,22.8566388 36.5247662,22.0681653 Z M35.1864345,26.3951305 C34.7829223,26.8168298 34.2882319,27.0185859 33.7013932,27.0185859 C33.1329842,27.0185859 32.6381725,26.8168298 32.2347815,26.3951305 C31.8313905,25.9733099 31.6112048,25.4782557 31.6112048,24.9100891 C31.6112048,24.3049421 31.8313905,23.8100091 32.2347815,23.4066182 C32.6381725,22.9849188 33.1329842,22.7832839 33.7013932,22.8015923 C34.2882319,22.7832839 34.7829223,22.9849188 35.2047429,23.4066182 C35.5898255,23.8100091 35.7915816,24.3049421 35.80989,24.9100891 C35.7915816,25.4782557 35.5898255,25.9733099 35.1864345,26.3951305 Z" id="Fill-3" fill="#FFFFFE"></path>
                <path d="M33.7013932,27.0185859 C34.2882319,27.0185859 34.7829223,26.8168298 35.1864345,26.3951305 C35.5898255,25.9733099 35.7915816,25.4782557 35.80989,24.9100891 C35.7915816,24.3049421 35.5898255,23.8100091 35.1864345,23.4066182 C34.7829223,22.9849188 34.2882319,22.7832839 33.7013932,22.8015923 C33.1329842,22.7832839 32.6381725,22.9849188 32.2347815,23.4066182 C31.8313905,23.8100091 31.6112048,24.3049421 31.6112048,24.9100891 C31.6112048,25.4782557 31.8313905,25.9733099 32.2347815,26.3951305 C32.6381725,26.8168298 33.1329842,27.0185859 33.7013932,27.0185859" id="Fill-4" fill="#FF0000"></path>
                <path d="M8.6021577,18.9331858 C7.22708799,18.9147561 6.09026994,19.3913807 5.13702084,20.3814891 C4.16534209,21.3531678 3.68871754,22.508173 3.68871754,23.883364 C3.68871754,25.2398828 4.16534209,26.4317473 5.13702084,27.4033048 C6.09026994,28.3567964 7.22708799,28.8334209 8.6021577,28.8334209 C9.70211646,28.8334209 10.710412,28.503506 11.5905488,27.8251254 C12.4522559,27.1281938 13.0206649,26.2667292 13.313963,25.203266 L11.3154378,25.203266 C11.0588778,25.7166286 10.6921036,26.1384492 10.2339087,26.4683641 C9.72042486,26.780213 9.18887512,26.9451099 8.6021577,26.9451099 C7.75888022,26.9451099 7.04364028,26.6335034 6.4570441,26.0466647 C5.85201828,25.4415176 5.55859895,24.7266414 5.57690734,23.883364 C5.55859895,23.0399652 5.85201828,22.3249678 6.4570441,21.719942 C7.04364028,21.1332245 7.75888022,20.8216181 8.6021577,20.8216181 C9.18887512,20.8216181 9.72042486,20.9863936 10.2339087,21.316551 C10.6921036,21.6282787 11.0588778,22.0681653 11.3154378,22.5815278 L13.313963,22.5815278 C13.0206649,21.5183071 12.4522559,20.6381704 11.5905488,19.9599109 C10.710412,19.2632219 9.70211646,18.9147561 8.6021577,18.9331858" id="Fill-5" fill="#FFFFFE"></path>
                <path d="M20.7025529,20.8766645 C19.4192676,20.8582349 18.5208225,21.2065794 18.0075811,21.8848388 C17.6774238,22.3066594 17.5124057,22.8566388 17.4574805,23.5532066 L19.3642212,23.5532066 C19.4009592,23.2232917 19.5109309,23.0032272 19.6392109,22.8566388 C19.8408457,22.5999575 20.1708819,22.471435 20.6475064,22.4898646 C21.0508974,22.471435 21.3626251,22.5447898 21.5826896,22.6731911 C21.8026329,22.7832839 21.8942961,23.0032272 21.9126045,23.3148337 C21.9126045,23.5716362 21.7658948,23.7732711 21.472718,23.9016724 L20.0058638,24.139924 C19.3276044,24.2315872 18.7775038,24.3966053 18.3558044,24.6349782 C17.640807,25.0567988 17.2924624,25.734937 17.3108921,26.7068582 C17.2924624,27.3849964 17.5124057,27.935097 17.9525347,28.338488 C18.337496,28.6686453 18.869167,28.8517293 19.5109309,28.8700377 C20.5558432,28.8517293 21.3810548,28.5952905 21.9676509,28.0818067 L21.9676509,28.8700377 L23.8743916,28.8700377 L23.8743916,23.2597872 C23.8743916,22.3432762 23.5443555,21.7016336 22.9210213,21.3715974 C22.2610703,21.0232529 21.5276432,20.8582349 20.7025529,20.8766645 Z M21.5093348,25.1848363 L21.8759877,24.9833227 L21.8759877,25.7532454 C21.8759877,26.4134389 21.6926613,26.8718763 21.3443167,27.1281938 C20.9776638,27.3849964 20.59246,27.5132764 20.1525735,27.5132764 C19.8774625,27.5132764 19.6576405,27.4400428 19.4741928,27.2933331 C19.2908664,27.1281938 19.1992031,26.8901847 19.1992031,26.5418401 C19.1992031,26.1567576 19.3459128,25.8816466 19.6576405,25.6800118 C19.8408457,25.5699189 20.1525735,25.4782557 20.5558432,25.4232092 L21.5093348,25.1848363 Z" id="Fill-6" fill="#FFFFFE"></path>
                <path d="M21.8759877,24.9833227 L21.5093348,25.1848363 L20.5558432,25.4232092 C20.1525735,25.4782557 19.8408457,25.5699189 19.6576405,25.6800118 C19.3459128,25.8816466 19.1992031,26.1567576 19.1992031,26.5418401 C19.1992031,26.8901847 19.2908664,27.1281938 19.4741928,27.2933331 C19.6576405,27.4400428 19.8774625,27.5132764 20.1525735,27.5132764 C20.59246,27.5132764 20.9776638,27.3849964 21.3443167,27.1281938 C21.6926613,26.8718763 21.8759877,26.4134389 21.8759877,25.7532454 L21.8759877,24.9833227" id="Fill-7" fill="#D8232A"></path>
                <polygon id="Fill-8" fill="#FFFFFE" points="14.285763 28.8700377 16.1923824 28.8700377 16.1923824 18.9331858 14.285763 18.9331858"></polygon>
                <path d="M28.3295156,21.1515329 C27.8162743,21.3531678 27.3579581,21.7016336 26.9727543,22.2333046 L26.9727543,21.2615046 L25.1577981,21.2431962 L25.1577981,28.8700377 L27.0461092,28.8700377 L27.0461092,25.2215744 C27.0461092,24.5983614 27.119464,24.1582324 27.2846033,23.883364 C27.4128833,23.5899446 27.6513775,23.3515717 27.9446756,23.1499369 C28.2744692,22.9298724 28.6228137,22.8199007 28.9895879,22.8199007 L29.5760628,22.8566388 L29.5577544,20.91316 L29.0629427,20.9497768 L28.3295156,21.1515329" id="Fill-9" fill="#FFFFFE"></path>
                <polyline id="Fill-10" fill="#FFFFFE" points="38.01005 21.188271 42.6117624 16.5864373 41.401832 15.3762644 36.7997559 19.9782193 38.01005 21.188271"></polyline>
                <polygon id="Fill-11" fill="#FFFFFE" points="33.0779377 19.3547639 34.7829223 19.3547639 34.7829223 14.4230153 33.0779377 14.4230153"></polygon>
                <polygon id="Fill-12" fill="#FFFFFE" points="38.8533275 24.7999963 43.8951689 24.7999963 43.8951689 23.0950117 38.8533275 23.0950117"></polygon>
            </g>
        </g>
    </g>
</svg>