<?xml version="1.0" encoding="UTF-8"?>
<svg width="47px" height="47px" viewBox="0 0 47 47" version="1.1" xmlns="http://www.w3.org/2000/svg" xmlns:xlink="http://www.w3.org/1999/xlink">
    <!-- Generator: Sketch 52.6 (67491) - http://www.bohemiancoding.com/sketch -->
    <title>Group 2 Copy 3</title>
    <desc>Created with Sketch.</desc>
    <defs>
        <circle id="path-1" cx="23.5917969" cy="23.526737" r="23.0917969"></circle>
    </defs>
    <g id="Designs" stroke="none" stroke-width="1" fill="none" fill-rule="evenodd">
        <g id="Group-2-Copy-3" transform="translate(0.000000, -1.000000)">
            <g id="Group-2-Copy-2" transform="translate(0.000000, 0.764683)">
                <mask id="mask-2" fill="white">
                    <use xlink:href="#path-1"></use>
                </mask>
                <use id="Oval-Copy" fill="#FFFFFF" xlink:href="#path-1"></use>
                <g id="Group-9" mask="url(#mask-2)">
                    <g transform="translate(2.811399, 9.704811)">
                        <path d="M37.9475676,3.5877949 C38.668074,10.4414786 36.4483465,32.5748663 26.9035892,25.1447775 C13.4063399,14.6395817 3.09493551,28.0864311 0.595523771,19.684546 C-0.491269575,16.0294846 2.70167391,3.31662896 16.5077117,2.96453914 C29.3909334,2.63658452 37.2263514,-3.26446909 37.9475676,3.5877949" id="Fill-1" fill="#9AAE04"></path>
                        <path d="M10.1083374,9.71742295 C10.2389513,10.0766113 10.4483596,10.3655237 10.7379819,10.5869996 C11.0247647,10.8063459 11.4038291,10.9213429 11.8780146,10.9291514 C12.1711861,10.9206331 12.4608084,10.8297712 12.7454617,10.655146 C13.0237262,10.4869095 13.2586894,10.2895689 13.4468019,10.0645437 L13.4893934,10.0134339 L13.75701,10.1965774 L13.7165481,10.2569154 C13.4368638,10.6643742 13.0940022,11.0001372 12.6929321,11.2606553 C12.2797945,11.5275621 11.8112879,11.6652746 11.2881222,11.6730831 C10.7798635,11.6681141 10.3468498,11.553117 10.0004389,11.3252524 C9.65544766,11.0973879 9.39705917,10.790729 9.22243398,10.4024364 C9.04922851,10.0141438 8.96475535,9.57758083 8.96262578,9.09203762 C8.96830465,8.60081555 9.08117215,8.15005541 9.30406771,7.74259663 C9.5248337,7.33513786 9.82723342,7.00718324 10.2141063,6.76228206 C10.6009792,6.51525131 11.0403816,6.38960635 11.5351529,6.38250777 C12.1896425,6.39031621 12.7042899,6.58481744 13.0719966,6.96956074 C13.4340244,7.34933503 13.6221369,7.86469229 13.6434327,8.51066352 L13.6448524,8.58803809 L9.92306431,8.58803809 C9.92022488,8.99123771 9.98127271,9.36817257 10.1083374,9.71742295 M12.4892027,8.162123 C12.4707464,7.78802758 12.3820141,7.47497998 12.2215861,7.21588163 C12.0625778,6.95749314 11.7793443,6.81907074 11.3619475,6.80629329 C10.9339028,6.82191017 10.5995595,6.9667213 10.3525287,7.23859711 C10.1125965,7.50337432 9.97133469,7.81074305 9.92945304,8.162123 L12.4892027,8.162123" id="Fill-2" fill="#FFFFFE"></path>
                        <path d="M19.0674614,6.82545947 L19.0049938,6.83326791 C18.8864475,6.85172423 18.7728701,6.89786503 18.662842,6.97807904 C18.5542337,7.05758319 18.4541436,7.24782527 18.3703803,7.45510394 L16.9201394,11.5694437 L15.9611206,11.5786719 L14.5612797,7.80861347 C14.4597699,7.51189262 14.3433531,7.2882872 14.2127392,7.13708734 C14.0842548,6.98801706 13.8911733,6.8488848 13.6413031,6.83042847 L13.5738665,6.82545947 L13.5738665,6.4691105 C13.5738665,6.4691105 15.8226982,6.4726598 15.8943939,6.4691105 L15.9710586,6.46485135 L15.9710586,6.82545947 L15.9014925,6.83042847 C15.688535,6.84249607 15.5543717,6.87940871 15.4869351,6.92980866 C15.4194986,6.98091847 15.387555,7.05261418 15.3918141,7.14205635 C15.3903944,7.183938 15.4031718,7.25492385 15.4351155,7.35359418 C15.4635098,7.43948706 16.4168498,10.0546057 16.6844664,10.7885994 C16.9442746,10.0645437 17.8599921,7.51899121 17.8883864,7.4181913 C17.9224596,7.30319423 17.9380765,7.20310418 17.9366568,7.12005074 C17.9380765,7.04480574 17.9032934,6.9787889 17.8174006,6.92483965 C17.7393161,6.87301998 17.599474,6.83823692 17.3950348,6.83042847 L17.3247588,6.82687918 L17.3247588,6.46485135 L17.4028432,6.4691105 C17.4731192,6.4726598 19.0674614,6.4691105 19.0674614,6.4691105 L19.0674614,6.82545947" id="Fill-3" fill="#FFFFFE"></path>
                        <path d="M20.1847786,9.71742295 C20.3146827,10.0766113 20.5248008,10.3655237 20.8137132,10.5869996 C21.1026257,10.8063459 21.4802704,10.9213429 21.9544558,10.9291514 C22.2483373,10.9206331 22.5365398,10.8297712 22.8226128,10.655146 C23.1015872,10.4869095 23.3351306,10.2895689 23.523953,10.0645437 L23.5644149,10.0134339 L23.8341611,10.1965774 L23.7936992,10.2569154 C23.5125952,10.6643742 23.1718631,11.0001372 22.7693734,11.2606553 C22.3562357,11.5275621 21.8891489,11.6652746 21.3659832,11.6730831 C20.8555949,11.6681141 20.4254207,11.553117 20.07759,11.3252524 C19.7333086,11.0973879 19.4742103,10.790729 19.3002949,10.4024364 C19.1277993,10.0141438 19.0411966,9.57758083 19.0411966,9.09203762 C19.0447459,8.60081555 19.1583233,8.15005541 19.380509,7.74259663 C19.6019848,7.33513786 19.9043845,7.00718324 20.2912574,6.76228206 C20.6774204,6.51525131 21.1182425,6.38960635 21.6115942,6.38250777 C22.2667936,6.39031621 22.781441,6.58481744 23.1498575,6.96956074 C23.5104656,7.34933503 23.699288,7.86469229 23.7212936,8.51066352 L23.7227133,8.58803809 L20.0009253,8.58803809 C19.9966661,8.99123771 20.0584238,9.36817257 20.1847786,9.71742295 M22.5663539,8.162123 C22.5478975,7.78802758 22.4577455,7.47497998 22.2987372,7.21588163 C22.1383092,6.95749314 21.8543658,6.81907074 21.4383887,6.80629329 C21.0110539,6.82191017 20.6760007,6.9667213 20.4282601,7.23859711 C20.1883279,7.50337432 20.0477759,7.81074305 20.007314,8.162123 L22.5663539,8.162123" id="Fill-4" fill="#FFFFFE"></path>
                        <path d="M26.5912515,6.71259197 C26.9177864,6.50389357 27.2812339,6.39315565 27.6780448,6.38250777 C27.7646476,6.3853472 27.8732559,6.40238381 28.0010304,6.43645701 C28.1202867,6.46698093 28.2217964,6.50105414 28.3069795,6.53725692 L28.3517005,6.55784281 L28.3509907,7.59636578 L27.6340336,7.59636578 L27.621966,7.53673767 C27.5978308,7.41038286 27.5531097,7.28899706 27.4870929,7.17470984 C27.4203662,7.0625522 27.3181466,7.00363395 27.1726256,7.00079451 C26.9092681,7.01428182 26.6615275,7.10798314 26.4286939,7.28331819 C26.1979899,7.45510394 25.9928408,7.63185871 25.8104071,7.8150022 L25.8018888,10.7119347 C25.7969198,10.8574557 25.8167959,10.9646443 25.8558381,11.03634 C25.8920409,11.1023569 25.9729647,11.1548864 26.1135167,11.1854103 C26.2498096,11.2138046 26.4606375,11.2287117 26.7467105,11.227292 L26.8191161,11.227292 L26.8184062,11.5857705 L23.8959188,11.5857705 L23.8959188,11.227292 L23.9711638,11.227292 C24.3431297,11.2301314 24.5653154,11.1932187 24.6540477,11.126492 C24.7434898,11.0611851 24.7889208,10.9291514 24.7747236,10.7112248 L24.7747236,7.49414616 C24.7889208,7.27834918 24.7434898,7.14702536 24.6540477,7.08029866 C24.5653154,7.01499168 24.3431297,6.97665932 23.9711638,6.97807904 L23.8959188,6.9787889 L23.8959188,6.62243994 L23.9654849,6.61747093 C24.2607861,6.59191602 24.5440196,6.56423154 24.8215743,6.53299777 C25.0927402,6.50247385 25.349709,6.45491333 25.59532,6.39315565 L25.6783735,6.37185989 L25.7720748,7.37985894 C26.0198154,7.12714932 26.2924011,6.90425376 26.5912515,6.71259197" id="Fill-5" fill="#FFFFFE"></path>
                        <path d="M32.6513134,10.1696028 C32.7215894,10.5728024 32.8734991,10.8496472 33.0978144,11.0079457 C33.3320677,11.1733427 33.6557632,11.2542666 34.0738698,11.2492976 C34.2357176,11.2492976 34.398985,11.2223229 34.5672215,11.1705033 C34.7347481,11.1186836 34.8731705,11.0356302 34.986038,10.9220528 C35.096066,10.8120247 35.1549843,10.670053 35.1585336,10.48478 C35.151435,10.2675633 35.0541844,10.0908085 34.8646522,9.94954667 C34.6687312,9.80402568 34.4238301,9.6755413 34.1320782,9.55983436 C33.8353574,9.44341757 33.5400562,9.31706276 33.2440452,9.17651078 C32.9459047,9.03737852 32.6939049,8.85920404 32.4887558,8.64198734 C32.2836067,8.42051149 32.1764181,8.1330188 32.1678998,7.78376842 C32.1749984,7.46149267 32.277218,7.19387602 32.4731389,6.98446777 C32.6655106,6.77718909 32.9047329,6.62527937 33.1922256,6.5273189 C33.4740394,6.42935843 33.7579828,6.38108805 34.0412163,6.38108805 C34.3209006,6.38605706 34.5970355,6.4229697 34.8731705,6.49679498 C35.1400773,6.56707098 35.3998855,6.64799484 35.653305,6.7409863 L35.7008655,6.75873277 L35.7008655,7.72201074 L35.1968659,7.72201074 L35.1847984,7.66309248 C35.1251702,7.37843923 34.9917168,7.15767324 34.7872776,6.99795508 C34.5743201,6.83113833 34.3123823,6.74524546 33.9993347,6.74240602 C33.7523039,6.7409863 33.5294084,6.80345385 33.3299381,6.92767909 C33.1389862,7.04835503 33.0339271,7.23504781 33.0204398,7.49414616 C33.0289581,7.66948121 33.1240792,7.82423036 33.315741,7.95839361 C33.510952,8.09681602 33.7565631,8.22742998 34.0490248,8.35094536 C34.3464555,8.47588045 34.6417566,8.60933385 34.9377676,8.75485484 C35.2351983,8.90108569 35.4864882,9.07713059 35.688088,9.28227969 C35.8960766,9.49239781 36.0032652,9.75149616 36.0117835,10.0560254 C36.0061046,10.4223124 35.9159526,10.7289713 35.7363584,10.9703232 C35.5596036,11.2102553 35.3246405,11.38772 35.0357281,11.5020072 C34.7468157,11.618424 34.4323484,11.6730831 34.0944557,11.6723732 C33.7395265,11.6702437 33.3767888,11.6248127 33.0105018,11.5360804 C32.6513134,11.4487678 32.3503334,11.3351904 32.1075618,11.1946385 L32.0706492,10.1099747 L32.6413754,10.1078451 L32.6513134,10.1696028" id="Fill-6" fill="#FFFFFE"></path>
                        <path d="M30.7126899,5.09056532 C30.5898844,5.21621027 30.4301662,5.27938768 30.2392143,5.28506654 C30.0489722,5.27938768 29.8920935,5.21621027 29.7678682,5.09056532 C29.6443528,4.96563022 29.5804656,4.80733178 29.5769163,4.62205872 C29.5804656,4.43607579 29.6443528,4.27919707 29.7678682,4.15426197 C29.8920935,4.02790716 30.0489722,3.96543961 30.2392143,3.9604706 C30.4301662,3.96543961 30.5898844,4.02790716 30.7126899,4.15426197 C30.8347855,4.27919707 30.8993827,4.43607579 30.9015122,4.62205872 C30.8993827,4.80733178 30.8347855,4.96563022 30.7126899,5.09056532" id="Fill-7" fill="#FFFFFE"></path>
                        <path d="M28.8904831,6.95678329 L28.8166578,6.95678329 L28.8166578,6.59901461 L28.8855141,6.59475546 C29.4952826,6.55145409 30.100082,6.48259782 30.6992026,6.38889649 L30.7850954,6.37611904 C30.7850954,6.37611904 30.7630898,9.83738903 30.7630898,10.3584252 C30.7510222,10.7275516 30.7992926,10.9525767 30.8894446,11.0562161 C30.9767572,11.1534667 31.1833261,11.2145145 31.5290271,11.2265821 L31.600013,11.2294215 L31.600013,11.5843508 L28.7946522,11.5843508 L28.7953621,11.2294215 L28.8663479,11.2265821 C29.2631588,11.2145145 29.5016713,11.1534667 29.6003416,11.0540865 C29.7004317,10.9518669 29.7522513,10.7261319 29.7394739,10.3584252 L29.7394739,7.63398828 C29.7494119,7.33371814 29.6954627,7.15341409 29.5946628,7.07390994 C29.4924431,6.99511564 29.2631588,6.95110442 28.8904831,6.95678329" id="Fill-8" fill="#FFFFFE"></path>
                    </g>
                </g>
            </g>
        </g>
    </g>
</svg>