<?xml version="1.0" encoding="UTF-8"?>
<svg width="106px" height="96px" viewBox="0 0 106 96" version="1.1" xmlns="http://www.w3.org/2000/svg" xmlns:xlink="http://www.w3.org/1999/xlink">
    <!-- Generator: Sketch 52.6 (67491) - http://www.bohemiancoding.com/sketch -->
    <title>loading copy 2</title>
    <desc>Created with Sketch.</desc>
    <g id="Designs" stroke="none" stroke-width="1" fill="none" fill-rule="evenodd">
        <g id="loading-copy-2" transform="translate(-0.316135, 0.427106)" fill="#FFFFFF">
            <path d="M47.8147697,94.5924233 C21.7636439,94.5924233 0.57105452,73.3998339 0.57105452,47.348708 C0.57105452,21.2975822 21.7636439,0.10499283 47.8147697,0.10499283 C73.8658956,0.10499283 95.0584849,21.3006245 95.0584849,47.348708 C95.0584849,48.8394299 93.850696,50.0502612 92.3569318,50.0502612 C90.8662099,50.0502612 89.6553786,48.8424722 89.6553786,47.348708 C89.6553786,24.2759837 70.8844518,5.50201458 47.8117274,5.50201458 C24.7359608,5.50201458 5.96503398,24.2759837 5.96503398,47.348708 C5.96503398,70.4214324 24.7359608,89.1923592 47.8117274,89.1923592 C62.5729166,89.1923592 76.4001228,81.279364 83.8993667,68.5443397 C84.6568968,67.2574512 86.3119023,66.8345729 87.5957486,67.5890608 C88.8795948,68.3435486 89.3055153,69.9985541 88.5540698,71.2854426 C80.0934624,85.660261 64.4804322,94.5924233 47.8147697,94.5924233 Z" id="Path"></path>
            <path d="M92.3569318,50.0502612 C91.8914615,50.0502612 91.4168643,49.9285696 90.9879015,49.6760596 L74.069729,39.6851805 C72.7858828,38.9276504 72.3599622,37.2726449 73.1174923,35.9887987 C73.8780647,34.7049525 75.5330703,34.2790319 76.8169165,35.0396043 L91.5781056,43.755764 L101.079176,30.1476026 C101.934059,28.9246022 103.616446,28.6264578 104.836404,29.4782989 C106.059404,30.33014 106.357549,32.0125262 105.505707,33.2355266 L94.5717186,48.8911489 C94.0484448,49.6425944 93.2118152,50.0502612 92.3569318,50.0502612 Z" id="Path"></path>
        </g>
    </g>
</svg>