<?xml version="1.0" encoding="UTF-8"?>
<svg width="40px" height="40px" viewBox="0 0 40 40" version="1.1" xmlns="http://www.w3.org/2000/svg" xmlns:xlink="http://www.w3.org/1999/xlink">
    <!-- Generator: Sketch 50.2 (55047) - http://www.bohemiancoding.com/sketch -->
    <title>logos / isotipo</title>
    <desc>Created with Sketch.</desc>
    <defs>
        <radialGradient cx="34.9849086%" cy="13.2163753%" fx="34.9849086%" fy="13.2163753%" r="77.8792061%" gradientTransform="translate(0.349849,0.132164),scale(1.000000,0.961442),rotate(71.260609),translate(-0.349849,-0.132164)" id="radialGradient-1">
            <stop stop-color="#FDB913" stop-opacity="0.6" offset="0%"></stop>
            <stop stop-color="#EE3524" offset="35.15625%"></stop>
            <stop stop-color="#C41230" offset="100%"></stop>
        </radialGradient>
        <path d="M19.8448564,0.345965714 C20.0931245,0.345965714 20.3409143,0.352643975 20.588704,0.360753292 C20.7977467,0.366477516 20.9623021,0.380788075 21.1259007,0.391282484 C21.2875859,0.400822857 21.4559681,0.41370236 21.6195667,0.428012919 C21.7257623,0.438030311 21.8324363,0.44852472 21.9395886,0.460450186 C29.3311853,1.26804273 35.4929221,6.17894957 38.1243726,12.8791533 C35.5809401,8.55259429 31.2862368,6.22283528 26.210374,6.22283528 C26.0233358,6.22283528 25.8391677,6.22712845 25.6549997,6.23571478 C25.6119474,6.23809988 25.5688951,6.23809988 25.5277563,6.24191602 C25.3493285,6.24954832 25.1689874,6.26195081 24.9886462,6.27864646 C20.8613684,6.65072099 17.2751142,8.8192477 14.9919087,11.9985769 C14.820178,12.2375632 14.656101,12.486567 14.498721,12.7384328 C13.1602737,14.8754763 12.3834194,17.404152 12.3834194,20.1131409 C12.3834194,22.7978017 13.1440095,25.3073968 14.4594956,27.4329918 C14.644142,27.7296974 14.8383556,28.0197247 15.0435714,28.3016427 C17.2052738,31.2706067 20.5107316,33.3475458 24.3122472,33.8741744 C24.498807,33.8994564 24.6853668,33.9199682 24.8743185,33.9376179 C25.0886231,33.9600378 25.3000576,33.9738713 25.5134055,33.9853198 C25.5502391,33.9867508 25.5908996,33.9881819 25.6282116,33.990567 C25.8205117,33.9991533 26.0152037,34.0034465 26.210374,34.0034465 C31.3393346,34.0034465 35.6775685,31.6188303 38.1535525,27.2965645 C37.2882018,29.56288 35.995677,31.6507906 34.3764332,33.4405645 C34.1937002,33.6418663 34.0076187,33.8355359 33.8210589,34.0258663 C33.7249088,34.1236552 33.6263669,34.2181048 33.5297385,34.3135086 C33.4460258,34.3950788 33.3580078,34.477126 33.2719032,34.5591732 C33.134136,34.6879682 32.9997172,34.8167632 32.8576447,34.93888 C29.3699323,38.0247135 24.820264,39.8827011 19.8448564,39.8827011 C19.8241276,39.8827011 19.7850616,39.8825421 19.7276586,39.8822241 C19.6128525,39.880793 19.6047204,39.880793 19.5975451,39.880316 C19.5439689,39.879998 19.4902333,39.879203 19.4363382,39.8779309 C19.318662,39.8755458 19.3162702,39.8755458 19.3129217,39.8750688 C19.2062477,39.8717297 19.1942888,39.8712527 19.1837649,39.8712527 C9.63190089,39.5015632 1.89588604,32.456952 0.415366253,23.3077347 C0.362268451,22.9814539 0.317781104,22.6527881 0.280947494,22.3217371 C0.271858681,22.2349198 0.269945247,22.2177471 0.268031812,22.1991434 C0.258464641,22.1099409 0.257029565,22.0927682 0.255116131,22.0760725 C0.246505677,21.9820999 0.245548959,21.9677893 0.243635525,21.9525247 C0.235503429,21.857598 0.234068354,21.8432875 0.232633278,21.8294539 C0.224501182,21.7321421 0.224022824,21.7192626 0.222587748,21.7054291 C0.215412369,21.6071632 0.214455652,21.5957148 0.213020576,21.5823583 C0.206323556,21.4836154 0.205366839,21.4702589 0.204410122,21.4583334 C0.198191461,21.3586365 0.197713102,21.346234 0.196756385,21.3333545 C0.190537723,21.2336576 0.190059365,21.2207781 0.189581006,21.2083757 C0.184319062,21.1077247 0.183840703,21.0967533 0.182883986,21.0853048 C0.178578759,20.9836999 0.177622042,20.9708204 0.177143683,20.960326 C0.173316815,20.8572899 0.172838456,20.8472725 0.172838456,20.8353471 C0.169011588,20.7323111 0.168533229,20.7213396 0.168533229,20.7103682 C0.165663078,20.6068552 0.165184719,20.5954067 0.165184719,20.5858663 C0.163271285,20.4794912 0.162792926,20.4680427 0.162792926,20.4561173 C0.160879492,20.3554663 0.160879492,20.3454489 0.160879492,20.3349545 C0.160241681,20.2856626 0.159922775,20.2428899 0.159922775,20.2066365 C0.159603869,20.1993222 0.159444416,20.1457371 0.159444416,20.0458812 L0.160401133,19.9099309 C0.162314568,19.8021247 0.162314568,19.7887682 0.162792926,19.7754117 C0.164228002,19.6661744 0.164706361,19.6537719 0.165184719,19.6399384 C0.168533229,19.5302241 0.168533229,19.5140055 0.169011588,19.4982639 C0.172838456,19.3766241 0.173316815,19.3608825 0.174273532,19.3456179 C0.178578759,19.2363806 0.179057118,19.2239781 0.180013835,19.2120527 C0.185275779,19.1013843 0.185275779,19.0899359 0.186232496,19.0794415 C0.191972799,18.9682961 0.192929516,18.9568477 0.193886234,18.9449222 C0.200104895,18.8347309 0.201061612,18.8228055 0.202018329,18.811357 C0.208715349,18.7045048 0.209672066,18.6916253 0.210628784,18.6806539 C0.218760879,18.5728477 0.219717596,18.5609222 0.220195955,18.5470887 C0.228806409,18.4421446 0.230241485,18.4287881 0.231198202,18.4178166 C0.240765374,18.3114415 0.241722091,18.298562 0.242678808,18.2856825 C0.255594489,18.1478241 0.261334792,18.0901048 0.267553454,18.0328626 C0.279990777,17.913608 0.280947494,17.9069297 0.281904211,17.8992974 C0.294819893,17.785767 0.29577661,17.7776576 0.296733327,17.7700253 C0.310605725,17.6569719 0.310605725,17.6526788 0.311084084,17.6483856 C0.331175144,17.4928775 0.344569184,17.3927036 0.358441583,17.2939607 C0.370878906,17.2052353 0.373749057,17.1880626 0.37614085,17.1708899 C0.390013249,17.0807334 0.392405042,17.0621297 0.395753552,17.045434 C1.17260787,12.1435906 3.68638218,7.8924005 7.27741999,4.89815453 C7.36878648,4.82278559 7.41375218,4.78653217 7.45871789,4.74932472 C7.54960602,4.67586385 7.55630304,4.67061665 7.56300006,4.66536944 C7.65436655,4.59190857 7.65627998,4.59047752 7.65819341,4.58952348 C7.7103345,4.54802286 7.76247558,4.50747627 7.81461667,4.46645267 C8.87370255,3.64454957 10.0165012,2.92902161 11.2296185,2.33513342 C11.3549485,2.27407503 11.4300508,2.23829863 11.5056314,2.20299925 C11.6041733,2.15625143 11.6113487,2.15338932 11.6180457,2.15005019 C11.7309383,2.09900919 11.7395488,2.09471602 11.7481592,2.09042286 C11.8548332,2.04272099 11.8615302,2.0403359 11.8677489,2.03651975 C11.98399,1.98595578 11.995949,1.98070857 12.0079079,1.97498435 C12.1289326,1.92298932 12.1839439,1.89913839 12.2379984,1.87624149 C14.554689,0.90932472 17.0273244,0.376494907 19.6205063,0.34739677 C19.7611437,0.345965714 19.8032392,0.345965714 19.8448564,0.345965714 Z" id="path-2"></path>
        <linearGradient x1="26.6773076%" y1="50%" x2="62.6390785%" y2="50%" id="linearGradient-3">
            <stop stop-color="#FDB913" offset="0%"></stop>
            <stop stop-color="#FFE512" offset="100%"></stop>
        </linearGradient>
        <linearGradient x1="62.5438349%" y1="50%" x2="95.4832278%" y2="50%" id="linearGradient-4">
            <stop stop-color="#FDB913" offset="0%"></stop>
            <stop stop-color="#FFE512" offset="100%"></stop>
        </linearGradient>
    </defs>
    <g id="logos-/-isotipo" stroke="none" stroke-width="1" fill="none" fill-rule="evenodd">
        <g id="Fill-6">
            <use fill="#EE3524" xlink:href="#path-2"></use>
            <use fill="url(#radialGradient-1)" xlink:href="#path-2"></use>
        </g>
        <path d="M24.9619059,6.27855106 C25.0527941,6.30335602 25.090106,6.31432745 25.127418,6.32434484 C25.436916,6.41402435 25.6875759,6.49416348 25.9348873,6.58098087 C25.9994657,6.60387776 26.011903,6.60817093 26.0248187,6.61294112 C31.5431632,8.60020075 35.4915349,13.8846132 35.4915349,20.0987349 C35.4915349,20.4440964 35.4790975,20.7856417 35.4551796,21.123848 C35.4480042,21.2311771 35.4389154,21.3380293 35.4288699,21.4448815 C34.8801926,27.3117337 30.8117529,32.1415473 25.3718592,33.795848 C25.3455495,33.8044343 25.3245017,33.8106355 25.303454,33.8168368 C25.2752308,33.8254231 25.2546614,33.8316243 25.234092,33.8368716 C25.2053904,33.8459349 25.184821,33.8521361 25.16473,33.8569063 C25.1355501,33.8659697 25.1164157,33.8716939 25.0963247,33.8764641 C25.0652314,33.8860045 25.0451403,33.8917287 25.026006,33.8960219 C24.9949127,33.9050852 24.9753,33.9108094 24.9556873,33.9155796 C24.9207671,33.925597 24.8978059,33.9313212 24.8743663,33.9375225 C24.6854147,33.9198728 24.4988548,33.899361 24.3146868,33.874079 C20.5107794,33.3474504 17.2053217,31.2705113 15.0436193,28.3015473 C14.8384034,28.0196293 14.6441899,27.730079 14.4595434,27.4328964 C15.7157131,28.1727523 17.1747067,28.5977759 18.7341557,28.5977759 C23.4067622,28.5977759 27.1977539,24.7940293 27.1977539,20.0987349 C27.1977539,15.4010554 23.4067622,11.5934927 18.7341557,11.5934927 C17.1890575,11.5934927 15.7444146,12.012315 14.4987689,12.7383374 C14.6561488,12.4864716 14.8202258,12.2374678 14.9919565,11.9984815 C17.275162,8.8191523 20.8614162,6.65062559 24.9619059,6.27855106 Z" id="Fill-8" fill="url(#linearGradient-3)"></path>
        <path d="M26.2104218,6.22316919 C31.2862846,6.22316919 35.5809879,8.55245118 38.0813682,12.8050723 C38.3105019,13.3073729 38.5090207,13.820168 38.6826649,14.3663543 C38.704191,14.4340909 38.7084963,14.4474475 38.7128015,14.461281 C38.7352843,14.5352189 38.7386328,14.5457133 38.741503,14.5547766 C38.7587239,14.6115419 38.7615941,14.6220363 38.7649426,14.6325307 C38.7879038,14.7107617 38.7917306,14.7250723 38.7960359,14.7389058 C39.2389959,16.2906475 39.4858289,18.020794 39.4958745,20.017117 L39.4958745,20.247994 C39.4810454,23.1172611 38.9811606,25.4327096 38.1536003,27.2964214 C35.6776163,31.6186872 31.3393824,34.0033034 26.2104218,34.0033034 C26.0152515,34.0033034 25.8205596,33.9990102 25.6282594,33.9909009 C25.5909475,33.9885158 25.550287,33.9870847 25.5134534,33.9851766 C25.3001054,33.9737282 25.088671,33.9598947 24.8801066,33.9374748 C24.9025895,33.9317506 24.926029,33.9255493 24.9489902,33.9193481 C24.9877373,33.9088537 25.0030448,33.9045605 25.0183522,33.9002673 C25.0590127,33.8888189 25.0733635,33.8850027 25.0867575,33.8811866 C25.1293314,33.8692611 25.1427255,33.865445 25.1561195,33.8616288 C25.1977367,33.8492263 25.2116091,33.8454102 25.2254815,33.841594 C25.2670987,33.8291916 25.2800144,33.8253754 25.2938868,33.8215593 C25.335504,33.8086798 25.3493764,33.8048636 25.3622921,33.8010475 C25.4043876,33.788168 25.4177817,33.7838748 25.4311757,33.7800586 C25.4727929,33.7667021 25.4866653,33.7624089 25.5000593,33.7576388 C25.5416765,33.7452363 25.5550706,33.7409431 25.5694213,33.7356959 C25.6091251,33.7232934 25.6244326,33.7180462 25.638305,33.713753 C25.6794438,33.7003965 25.6961863,33.6941953 25.7129289,33.6894251 C25.7980767,33.660804 25.866482,33.636953 25.9344089,33.6135791 C25.9645455,33.6030847 25.9832015,33.5959294 26.0023358,33.5897282 C26.0339075,33.5778027 26.0516068,33.5720785 26.0688277,33.5654002 C26.1042262,33.5525207 26.120012,33.5472735 26.1357979,33.5410723 C26.1721531,33.5277158 26.187939,33.5219916 26.2032464,33.5157903 C26.2391233,33.5029108 26.2549092,33.4962325 26.2711733,33.4909853 C26.3056152,33.4771518 26.321401,33.4714276 26.3371868,33.4652263 C26.3740204,33.4513928 26.3893279,33.4451916 26.4055921,33.4385133 C26.4400339,33.4251568 26.4572548,33.4180015 26.4744757,33.4118002 C26.5079608,33.3979667 26.5266168,33.3908114 26.5452728,33.3836561 C26.6887804,33.3249829 26.8222424,33.2691717 26.9547477,33.2104984 C26.9796224,33.199527 26.9997135,33.1909406 27.0198045,33.1814002 C27.0465926,33.1699518 27.0666837,33.1604114 27.0862964,33.1518251 C27.1121277,33.1394226 27.1322188,33.1313133 27.1523098,33.1217729 C27.1786196,33.1098475 27.1982323,33.1003071 27.2183233,33.0912437 C27.2441547,33.0788412 27.2637674,33.0702549 27.2843368,33.0597605 C27.3096898,33.048312 27.3302592,33.0382947 27.351307,33.0287543 C30.8514567,31.3553729 33.5651849,28.2952984 34.785956,24.5559493 C34.8165709,24.4619766 34.8237463,24.4390798 34.8309217,24.4152288 C34.912721,24.1562077 34.9868666,23.8952785 35.0533584,23.6310102 C35.2413533,22.8744586 35.3614213,22.1708561 35.4283915,21.4519891 C35.4676169,21.0274425 35.4886647,20.6086201 35.4915349,20.1869357 L35.4915349,20.0986872 L35.4915349,20.0070996 C35.4523094,13.7910698 31.4690176,8.52049093 25.9296253,6.57902509 C25.6124736,6.46740273 25.2905383,6.36722882 24.9638194,6.27850335 C25.1690352,6.26228472 25.3493764,6.24940522 25.5278041,6.24224994 C25.568943,6.23795677 25.6119952,6.23795677 25.6550475,6.23557168 C25.8392156,6.22698534 26.0233836,6.22316919 26.2104218,6.22316919 Z" id="Fill-10" fill="url(#linearGradient-4)"></path>
    </g>
</svg>